<?xml version="1.0" encoding="UTF-8" standalone="no"?>
<!DOCTYPE svg PUBLIC "-//W3C//DTD SVG 1.1//EN" "http://www.w3.org/Graphics/SVG/1.1/DTD/svg11.dtd">
<svg width="100%" height="100%" viewBox="0 0 387 382" version="1.1" xmlns="http://www.w3.org/2000/svg" xmlns:xlink="http://www.w3.org/1999/xlink" xml:space="preserve" style="fill-rule:evenodd;clip-rule:evenodd;stroke-linejoin:round;stroke-miterlimit:2;">
    <g id="Lanosch" transform="matrix(1,0,0,1,-55.4521,-39.4991)">
        <g id="Logo">
            <g transform="matrix(1,0,0,1,245,45.8381)">
                <path d="M0,314.157C-86.706,314.157 -156.995,243.869 -156.995,157.162C-156.995,70.456 -86.706,0.168 0,0.168C86.705,0.168 156.993,70.456 156.993,157.162C156.993,243.869 86.705,314.157 0,314.157M0.583,-6.339C-89.669,-6.339 -162.833,66.825 -162.833,157.078C-162.833,247.331 -89.669,320.496 0.583,320.496C90.836,320.496 164,247.331 164,157.078C164,66.825 90.836,-6.339 0.583,-6.339" style="fill-rule:nonzero;"/>
            </g>
            <g transform="matrix(1,0,0,1,320.125,246.391)">
                <path d="M0,-114.016C-3.375,-110.391 -3.5,-112.641 -5.625,-113.141C-7.75,-113.641 -9.375,-112.141 -10.625,-110.016C-11.211,-109.021 -12.244,-108.991 -13.292,-108.974C-14.482,-108.955 -15.693,-109.06 -16.292,-109.724C-17.417,-110.974 -16.208,-113.558 -13.958,-115.391C-12.546,-116.542 -8.625,-116.474 -8.625,-116.474C-8.625,-116.474 3.375,-117.641 0,-114.016M-142.375,-100.516C-145.125,-99.766 -145.625,-101.516 -145.625,-101.516C-147.875,-105.016 -148.875,-105.641 -151,-105.766C-153.125,-105.891 -154.625,-103.641 -158.125,-106.391C-161.625,-109.141 -152.625,-111.391 -148.75,-110.641C-144.781,-109.873 -139.375,-103.266 -139.375,-103.266C-138.625,-102.766 -139.625,-101.266 -142.375,-100.516M52.708,-120.391L48.938,-120.328L48.809,-121.303L48.031,-121.485C48.031,-121.485 48.002,-123.634 47.625,-124.766C47.5,-125.141 38.75,-125.849 38.75,-125.849L38.625,-128.224L35.875,-128.224L35.938,-126.141L28.75,-126.579L28.708,-129.474L23.792,-129.474L23.792,-127.058C23.792,-127.058 10.374,-127.808 9.958,-128.058C9.542,-128.308 6.208,-128.224 6.208,-128.224L6.125,-131.391L0.875,-131.308L0.875,-129.058L-7.125,-129.058C-7.125,-129.058 -8.708,-126.891 -9.125,-126.641C-9.542,-126.391 -14.125,-126.224 -14.125,-126.224L-14.125,-130.391C-14.125,-130.391 -12.637,-131.338 -11.708,-133.141C-10.931,-134.652 -10.562,-136.473 -11.625,-139.474C-13.958,-146.058 -20.292,-151.474 -24.458,-151.308C-27.062,-151.204 -32.303,-151.099 -35.875,-148.724C-38.02,-147.3 -39.875,-145.162 -41.125,-141.724C-41.125,-141.724 -42.293,-138.974 -41.959,-129.641L-45.75,-128.516C-45.75,-128.516 -54.958,-118.641 -56.125,-116.141C-57.292,-113.641 -56.813,-114.422 -57.292,-113.641C-58.055,-112.399 -63.875,-79.641 -64.5,-77.266C-65.125,-74.891 -66.451,-69.605 -66,-68.703C-65.813,-68.328 -64.25,-68.391 -64.25,-68.391L-64.125,-66.016C-64.125,-66.016 -65.5,-64.391 -65.125,-61.391C-64.75,-58.391 -62.875,-57.516 -62.875,-56.266C-62.875,-55.016 -74.375,-16.266 -74.625,-15.391C-74.875,-14.516 -76.5,-6.016 -77.25,-8.266C-78,-10.516 -86.125,-37.891 -86.375,-40.641L-85.5,-42.141L-85.125,-45.891L-84.375,-46.141L-84.25,-51.641L-85.5,-53.516L-85.25,-55.141L-83.5,-54.516C-83.5,-54.516 -83.125,-64.016 -82.75,-64.516C-82.375,-65.016 -82,-73.141 -82,-73.141C-82,-73.141 -82.958,-119.808 -92.458,-124.058C-103.915,-129.183 -107.208,-130.224 -111.792,-131.224C-111.792,-131.224 -110.75,-137.641 -111.75,-142.016C-111.75,-142.016 -104.631,-148.066 -101.625,-148.224C-98.458,-148.391 -96.125,-148.204 -92.75,-142.578C-90.085,-138.137 -91.438,-134.828 -93.625,-132.266C-93.625,-132.266 -81.625,-125.058 -71.792,-134.891C-65.636,-141.046 -67.375,-151.391 -67.375,-151.391C-67.375,-151.391 -74.292,-147.891 -80.125,-152.224C-83.125,-154.391 -85.875,-157.641 -83.875,-161.641L-87.125,-165.954C-90.958,-164.558 -102.625,-169.058 -93.625,-183.391C-93.625,-183.391 -102.964,-186.062 -110.5,-181.266C-118.75,-176.016 -119.375,-169.641 -119.708,-165.058C-119.708,-165.058 -114.049,-168.497 -108.958,-163.058C-107.75,-161.766 -104.732,-159.654 -105.792,-154.891C-106.125,-153.391 -112.875,-149.974 -113.042,-150.391C-113.208,-150.808 -114.542,-155.391 -115.292,-156.308C-116.042,-157.224 -117.292,-153.891 -118.042,-148.974C-118.042,-148.974 -117.625,-146.808 -120.458,-147.724C-120.458,-147.724 -130.458,-153.724 -137.958,-146.058C-145.458,-138.391 -145.125,-136.224 -145.125,-132.391C-145.125,-128.558 -148.583,-127.891 -151.25,-126.391C-153.917,-124.891 -162.875,-118.808 -162.875,-118.808C-162.875,-118.808 -173.375,-120.766 -177.375,-116.641C-177.375,-116.641 -178.208,-112.474 -181.292,-113.058C-182.542,-113.391 -181.292,-108.808 -184.292,-106.724C-184.292,-106.724 -195.083,-99.203 -195.292,-98.391C-195.5,-97.579 -192.041,-92.454 -191.458,-92.391C-190.875,-92.329 -180.708,-99.891 -179.625,-99.391C-178.542,-98.891 -177.479,-96.141 -176.208,-95.141C-174.937,-94.141 -168.375,-91.974 -167.458,-91.391C-166.82,-90.985 -164.797,-89.517 -163.292,-87.391C-161.666,-85.094 -160.625,-83.391 -159.708,-83.058C-158.792,-82.724 -154.125,-83.224 -152.792,-82.224C-151.458,-81.224 -147.625,-79.891 -146.625,-79.391C-145.625,-78.891 -135.375,-79.391 -135.375,-79.391C-135.375,-79.391 -134.542,-64.224 -134,-63.516C-133.458,-62.808 -130.542,-63.558 -129.208,-63.391C-129.208,-63.391 -128.792,-60.141 -129.125,-51.474C-129.125,-51.474 -129.958,-51.224 -132.875,-51.141C-132.875,-51.141 -134.753,-49.255 -137.437,-46.016C-143.415,-38.801 -153.125,-26.605 -153.125,-25.828C-153.125,-24.703 -149.125,-22.224 -149.042,-21.558C-148.958,-20.891 -164.375,1.192 -164.875,4.359C-165.375,7.526 -166.25,20.359 -168.5,21.609C-170.75,22.859 -175.5,29.546 -173.208,34.276C-172.976,34.756 -170.917,31.943 -169.458,33.776C-168.692,34.739 -170,46.484 -171.125,48.484C-172.25,50.484 -182.875,63.901 -179.625,67.276C-179.625,67.276 -173.937,72.046 -169,68.546C-164.062,65.046 -152.625,57.109 -152.375,54.734C-152.125,52.359 -152.292,38.984 -149.792,37.109C-147.292,35.234 -146.875,34.359 -145.25,35.859C-143.625,37.359 -142.697,32 -143.125,29.859C-143.75,26.734 -146.875,24.859 -146.125,19.359C-146.125,19.359 -145.25,14.734 -143,8.484C-142.077,5.92 -139.476,3.286 -137.375,1.109C-130.5,-6.016 -113.25,-24.641 -113.25,-24.641C-113.25,-24.641 -112.5,-25.891 -111.25,-23.641C-110,-21.391 -98.25,8.859 -98.563,9.297C-98.951,9.841 -99.103,11.379 -98.625,13.026C-97.375,17.338 -93.872,24.418 -92,27.984C-89.375,32.984 -86.125,39.359 -84.25,39.734C-81.75,40.234 -71.125,39.734 -71.125,39.734C-71.125,39.734 -71.733,42.29 -72.375,45.234C-73.114,48.629 -73.744,52.538 -71,53.609C-71,53.609 -62.375,59.734 -57.625,53.109C-52.875,46.484 -49,36.734 -51,34.234C-53,31.734 -59.5,23.359 -59,21.609C-58.5,19.859 -56.791,18.64 -63.25,16.859C-66.875,15.859 -67.622,14.767 -67.5,13.984C-67.421,13.468 -67.537,13.468 -66.875,13.484C-65.354,13.521 -63.166,15.275 -61.208,9.234C-60.096,5.801 -57.294,1.928 -55,-3.391C-53.256,-7.435 -51.66,-14.836 -49.75,-19.516C-44.75,-31.766 -42.25,-38.891 -41.125,-40.641C-40,-42.391 -39.25,-40.641 -38,-39.141C-36.75,-37.641 -15,-16.641 -14,-13.891C-13,-11.141 -8.25,6.109 -7.25,11.359C-6.832,13.555 -6.24,16.475 -6,19.734C-5.666,24.264 -5.523,29.103 -3.125,30.484C1,32.859 4.625,37.234 8.375,38.734C12.125,40.234 17.5,40.109 17.75,37.859C18,35.609 19.375,33.859 13.75,27.484C8.125,21.109 9.875,21.109 9.375,16.609C8.875,12.109 7.25,-14.516 5,-18.516C2.75,-22.516 -6.875,-36.141 -7.375,-36.891C-7.875,-37.641 -7.375,-40.141 -6.25,-41.141C-5.125,-42.141 -4.878,-43.288 -9.75,-48.891C-14.75,-54.641 -21.469,-65.141 -22.219,-65.266C-22.219,-65.266 -25.552,-65.214 -25.958,-65.433C-26.364,-65.651 -26.208,-75.027 -26,-75.349C-25.792,-75.672 -23.709,-75.071 -22.458,-76.141C-21.707,-76.784 -21.916,-79.683 -21.541,-81.266C-21.166,-82.849 -20.75,-83.766 -20.375,-84.516C-20,-85.266 -20.437,-88.954 -20.125,-89.266C-19.812,-89.579 -11.5,-89.266 -10.375,-89.766C-9.25,-90.266 -7.562,-92.079 -6.625,-92.266C-5.687,-92.454 1.25,-92.266 1.562,-92.766C1.562,-92.766 3.875,-96.391 4.875,-96.766C5.875,-97.141 6.25,-99.266 6.25,-99.641C6.25,-100.016 7.25,-102.233 9,-102.266C11.208,-102.308 10.083,-100.308 13.75,-100.391C16.627,-100.456 18.125,-100.224 18.562,-100.578C19,-100.933 18.875,-107.308 18.875,-107.308C18.875,-107.308 19.708,-108.308 21.208,-103.391C22.708,-98.474 27.458,-88.141 28.458,-88.141C29.061,-88.141 30.788,-89.207 30.875,-89.641C30.908,-89.804 28.619,-94.665 27.062,-99.453C25.634,-103.847 24.921,-108.173 25.041,-108.891C25.291,-110.391 27.041,-108.891 27.958,-107.724C28.875,-106.558 30.125,-107.558 32.375,-109.891C34.625,-112.224 33.958,-113.224 34.875,-114.724C35.792,-116.224 37.208,-116.808 38.875,-116.974C40.542,-117.141 48.125,-117.391 48.125,-117.391L52.791,-117.474L52.708,-120.391Z" style="fill-rule:nonzero;"/>
            </g>
        </g>
        <g id="Text">
            <g transform="matrix(1,0,0,1,55.4521,420.803)">
                <path d="M0,-54.82L11.119,-54.82L11.119,-9.75L43,-9.75L43,0L0,0L0,-54.82Z" style="fill-rule:nonzero;"/>
            </g>
            <g transform="matrix(1,0,0,1,116.901,392.815)">
                <path d="M0,14.59C0,15.269 0.175,15.918 0.526,16.537C0.877,17.156 1.438,17.706 2.21,18.186C2.981,18.665 3.969,19.051 5.173,19.343C6.377,19.636 7.833,19.781 9.54,19.781C11.364,19.781 13.129,19.618 14.836,19.29C16.543,18.963 18.133,18.53 19.606,17.992C21.079,17.455 22.412,16.835 23.604,16.134C24.797,15.432 25.791,14.707 26.586,13.959L26.586,12.135C24.996,11.692 23.423,11.317 21.869,11.013C20.313,10.709 18.829,10.469 17.414,10.294C15.999,10.118 14.667,9.995 13.416,9.926C12.165,9.856 11.071,9.82 10.136,9.82C8.195,9.82 6.582,9.949 5.296,10.206C4.01,10.464 2.969,10.809 2.175,11.24C1.379,11.674 0.818,12.183 0.491,12.767C0.164,13.352 0,13.959 0,14.59M-10.943,14.942C-10.943,12.954 -10.51,11.142 -9.645,9.505C-8.78,7.868 -7.482,6.459 -5.752,5.278C-4.022,4.098 -1.865,3.186 0.719,2.542C3.303,1.9 6.313,1.578 9.75,1.578C12.299,1.578 14.982,1.766 17.8,2.139C20.617,2.514 23.522,3.086 26.516,3.858C26.398,2.549 26.001,1.339 25.323,0.228C24.645,-0.883 23.704,-1.842 22.5,-2.648C21.295,-3.455 19.846,-4.08 18.151,-4.524C16.455,-4.969 14.532,-5.191 12.381,-5.191C11.211,-5.191 9.926,-5.121 8.523,-4.98C7.12,-4.841 5.67,-4.63 4.174,-4.349C2.677,-4.069 1.198,-3.718 -0.263,-3.297C-1.725,-2.876 -3.086,-2.373 -4.349,-1.789L-7.505,-10.311C-5.939,-10.873 -4.261,-11.388 -2.473,-11.855C-0.684,-12.322 1.146,-12.725 3.017,-13.065C4.887,-13.404 6.757,-13.667 8.628,-13.854C10.499,-14.041 12.311,-14.135 14.064,-14.135C21.804,-14.135 27.556,-12.159 31.321,-8.208C35.085,-4.256 36.968,1.801 36.968,9.961L36.968,27.988L26.586,27.988L26.586,24.095C25.51,24.727 24.335,25.322 23.061,25.884C21.786,26.445 20.401,26.937 18.905,27.358C17.408,27.778 15.801,28.111 14.082,28.357C12.364,28.603 10.545,28.725 8.628,28.725C5.401,28.725 2.566,28.374 0.123,27.673C-2.321,26.971 -4.361,26.001 -5.998,24.762C-7.634,23.523 -8.868,22.067 -9.698,20.395C-10.528,18.724 -10.943,16.905 -10.943,14.942" style="fill-rule:nonzero;"/>
            </g>
            <g transform="matrix(1,0,0,1,167.583,420.068)">
                <path d="M0,-40.651L10.382,-40.651L10.382,-37.144C13.14,-38.71 15.777,-39.809 18.291,-40.441C20.804,-41.072 23.265,-41.387 25.674,-41.387C28.83,-41.387 31.753,-40.925 34.442,-40.003C37.131,-39.078 39.458,-37.705 41.422,-35.881C43.386,-34.057 44.923,-31.783 46.034,-29.059C47.144,-26.335 47.7,-23.184 47.7,-19.607L47.7,0.736L37.353,0.736L37.353,-17.923C37.353,-20.191 37.031,-22.22 36.389,-24.008C35.745,-25.797 34.822,-27.305 33.618,-28.533C32.413,-29.76 30.952,-30.696 29.233,-31.339C27.515,-31.982 25.591,-32.303 23.464,-32.303C22.342,-32.303 21.19,-32.186 20.009,-31.953C18.828,-31.718 17.671,-31.385 16.537,-30.953C15.403,-30.52 14.31,-29.983 13.258,-29.339C12.206,-28.697 11.247,-27.965 10.382,-27.148L10.382,0.736L0,0.736L0,-40.651Z" style="fill-rule:nonzero;"/>
            </g>
            <g transform="matrix(1,0,0,1,236.432,400.11)">
                <path d="M0,0C0,1.66 0.333,3.232 1,4.718C1.666,6.202 2.636,7.512 3.911,8.646C5.185,9.78 6.74,10.68 8.576,11.347C10.411,12.013 12.498,12.346 14.836,12.346C17.174,12.346 19.261,12.013 21.097,11.347C22.932,10.68 24.486,9.78 25.762,8.646C27.036,7.512 28.006,6.202 28.673,4.718C29.339,3.232 29.672,1.66 29.672,0C29.672,-1.66 29.339,-3.238 28.673,-4.735C28.006,-6.231 27.036,-7.546 25.762,-8.681C24.486,-9.814 22.932,-10.715 21.097,-11.382C19.261,-12.048 17.174,-12.381 14.836,-12.381C12.498,-12.381 10.411,-12.048 8.576,-11.382C6.74,-10.715 5.185,-9.814 3.911,-8.681C2.636,-7.546 1.666,-6.231 1,-4.735C0.333,-3.238 0,-1.66 0,0M-10.908,0C-10.908,-2.969 -10.306,-5.752 -9.102,-8.348C-7.897,-10.943 -6.179,-13.211 -3.946,-15.151C-1.713,-17.093 0.987,-18.624 4.156,-19.746C7.324,-20.869 10.884,-21.43 14.836,-21.43C18.787,-21.43 22.348,-20.869 25.516,-19.746C28.685,-18.624 31.385,-17.093 33.618,-15.151C35.851,-13.211 37.569,-10.943 38.773,-8.348C39.978,-5.752 40.58,-2.969 40.58,0C40.58,2.97 39.978,5.752 38.773,8.348C37.569,10.943 35.851,13.211 33.618,15.151C31.385,17.093 28.685,18.624 25.516,19.746C22.348,20.869 18.787,21.43 14.836,21.43C10.884,21.43 7.324,20.869 4.156,19.746C0.987,18.624 -1.713,17.093 -3.946,15.151C-6.179,13.211 -7.897,10.943 -9.102,8.348C-10.306,5.752 -10.908,2.97 -10.908,0" style="fill-rule:nonzero;"/>
            </g>
            <g transform="matrix(1,0,0,1,289.147,392.113)">
                <path d="M0,15.994C2.807,17.678 5.893,18.917 9.26,19.712C12.627,20.507 16.075,20.904 19.606,20.904C21.991,20.904 23.979,20.741 25.569,20.413C27.159,20.086 28.433,19.665 29.392,19.15C30.351,18.637 31.028,18.052 31.426,17.396C31.823,16.742 32.022,16.076 32.022,15.397C32.022,14.415 31.596,13.574 30.742,12.872C29.889,12.171 28.48,11.82 26.516,11.82C25.604,11.82 24.622,11.879 23.569,11.995C22.518,12.112 21.413,12.235 20.255,12.363C19.098,12.492 17.894,12.615 16.643,12.732C15.392,12.849 14.123,12.907 12.837,12.907C10.031,12.907 7.641,12.603 5.665,11.995C3.688,11.388 2.081,10.557 0.842,9.505C-0.397,8.453 -1.298,7.208 -1.858,5.769C-2.42,4.332 -2.7,2.783 -2.7,1.123C-2.7,-0.982 -2.209,-2.922 -1.228,-4.699C-0.245,-6.477 1.158,-8.014 2.981,-9.312C4.806,-10.61 7.009,-11.62 9.593,-12.346C12.177,-13.07 15.059,-13.433 18.238,-13.433C19.898,-13.433 21.635,-13.333 23.447,-13.135C25.259,-12.936 27.042,-12.673 28.796,-12.346C30.55,-12.018 32.232,-11.638 33.847,-11.206C35.46,-10.773 36.886,-10.312 38.125,-9.82L34.863,-1.753C32.221,-2.735 29.585,-3.513 26.954,-4.086C24.324,-4.658 21.617,-4.945 18.835,-4.945C16.894,-4.945 15.251,-4.799 13.907,-4.507C12.563,-4.214 11.47,-3.828 10.628,-3.35C9.786,-2.87 9.172,-2.32 8.786,-1.701C8.4,-1.081 8.208,-0.432 8.208,0.246C8.208,0.737 8.307,1.181 8.506,1.578C8.704,1.976 9.032,2.321 9.487,2.613C9.943,2.906 10.54,3.128 11.276,3.279C12.013,3.431 12.919,3.508 13.995,3.508C14.977,3.508 16.017,3.449 17.116,3.332C18.215,3.216 19.361,3.093 20.554,2.964C21.746,2.836 22.979,2.713 24.254,2.596C25.528,2.478 26.832,2.42 28.164,2.42C30.643,2.42 32.812,2.713 34.671,3.297C36.529,3.882 38.066,4.7 39.282,5.752C40.498,6.805 41.41,8.044 42.019,9.47C42.626,10.896 42.931,12.451 42.931,14.135C42.931,16.309 42.427,18.332 41.422,20.203C40.417,22.073 38.92,23.692 36.933,25.06C34.945,26.428 32.473,27.498 29.515,28.269C26.557,29.041 23.137,29.427 19.256,29.427C16.871,29.427 14.567,29.28 12.347,28.988C10.125,28.696 8.009,28.299 5.998,27.796C3.986,27.294 2.099,26.703 0.334,26.024C-1.433,25.347 -3.039,24.622 -4.489,23.85L0,15.994Z" style="fill-rule:nonzero;"/>
            </g>
            <g transform="matrix(1,0,0,1,338.916,400.005)">
                <path d="M0,0.211C0,-2.829 0.556,-5.664 1.666,-8.295C2.776,-10.925 4.402,-13.205 6.542,-15.134C8.681,-17.063 11.3,-18.577 14.398,-19.676C17.496,-20.774 21.032,-21.324 25.008,-21.324C26.738,-21.324 28.48,-21.22 30.233,-21.009C31.987,-20.799 33.677,-20.5 35.302,-20.114C36.927,-19.728 38.452,-19.272 39.879,-18.746C41.305,-18.221 42.545,-17.642 43.597,-17.011L38.792,-9.189C36.523,-10.241 34.378,-11.013 32.355,-11.504C30.333,-11.995 28.281,-12.24 26.2,-12.24C23.815,-12.24 21.676,-11.931 19.782,-11.31C17.888,-10.691 16.28,-9.826 14.959,-8.716C13.638,-7.604 12.632,-6.296 11.942,-4.787C11.253,-3.279 10.908,-1.636 10.908,0.141C10.908,1.918 11.276,3.561 12.013,5.068C12.75,6.576 13.79,7.874 15.135,8.962C16.479,10.049 18.104,10.902 20.01,11.522C21.915,12.142 24.037,12.451 26.376,12.451C28.947,12.451 31.374,12.089 33.653,11.364C35.934,10.64 38.055,9.669 40.02,8.453L44.824,16.274C43.585,17.023 42.24,17.719 40.791,18.361C39.341,19.005 37.792,19.56 36.144,20.027C34.495,20.495 32.765,20.863 30.953,21.132C29.141,21.4 27.264,21.535 25.323,21.535C21.372,21.535 17.829,20.997 14.696,19.922C11.563,18.847 8.909,17.357 6.734,15.45C4.56,13.545 2.894,11.294 1.736,8.698C0.579,6.103 0,3.274 0,0.211" style="fill-rule:nonzero;"/>
            </g>
            <g transform="matrix(1,0,0,1,394.929,420.803)">
                <path d="M0,-58.152L10.382,-58.152L10.382,-38.23C12.557,-39.423 14.982,-40.369 17.66,-41.071C20.337,-41.772 23.148,-42.123 26.095,-42.123C29.509,-42.123 32.577,-41.62 35.302,-40.615C38.025,-39.609 40.335,-38.165 42.229,-36.283C44.123,-34.401 45.578,-32.115 46.596,-29.426C47.612,-26.737 48.121,-23.71 48.121,-20.342L48.121,0L37.774,0L37.774,-19.922C37.774,-21.885 37.459,-23.679 36.827,-25.305C36.196,-26.93 35.272,-28.327 34.057,-29.497C32.841,-30.666 31.361,-31.571 29.62,-32.215C27.878,-32.857 25.907,-33.179 23.71,-33.179C21.067,-33.179 18.612,-32.758 16.345,-31.917C14.076,-31.075 12.089,-30.01 10.382,-28.725L10.382,0L0,0L0,-58.152Z" style="fill-rule:nonzero;"/>
            </g>
        </g>
    </g>
</svg>
